<?xml version="1.0" encoding="UTF-8"?>
<svg id="Layer_2" data-name="Layer 2" xmlns="http://www.w3.org/2000/svg" viewBox="0 0 9.36 8.4">
  <defs>
    <style>
      .cls-1 {
        fill: #393b5d;
        fill-rule: evenodd;
        opacity: .5;
        stroke-width: 0px;
      }
    </style>
  </defs>
  <g id="Layer_1-2" data-name="Layer 1">
    <path class="cls-1" d="m1.67,4.51v2.17c0,.55.33,1.06.85,1.28,1.42.59,2.84.59,4.26,0,.52-.22.84-.73.84-1.28v-2.13l1.02-.5s0,0,0,0v1.43c0,.2.15.36.35.36.2,0,.36-.16.36-.36l.02-2.6s0-.05,0-.07c-.03-.44-.27-.87-.73-1.09L5.49.19s0,0,0,0c-.51-.25-1.11-.25-1.62,0L.73,1.72c-.97.47-.97,1.86,0,2.33,0,0,0,0,0,0l.94.46Zm2.31,1.13l.04.02s.07.03.1.03c.45.14.94.11,1.37-.1l1.4-.68v1.78c0,.27-.16.51-.4.61-1.23.52-2.46.51-3.7,0-.24-.1-.4-.34-.4-.61v-1.81l1.48.72s.07.03.11.05ZM5.17.83c-.31-.15-.68-.15-.99,0l-3.14,1.53s0,0,0,0c-.43.21-.43.83,0,1.04l3.22,1.57c.29.11.62.1.91-.04l3.14-1.53c.43-.21.43-.83,0-1.04l-3.14-1.53Z"/>
  </g>
</svg>