<?xml version="1.0" encoding="UTF-8"?>
<svg id="Layer_2" data-name="Layer 2" xmlns="http://www.w3.org/2000/svg" viewBox="0 0 7.57 10.65">
  <defs>
    <style>
      .cls-1 {
        opacity: .5;
      }

      .cls-2 {
        fill: #393b5d;
        stroke-width: 0px;
      }
    </style>
  </defs>
  <g id="Layer_1-2" data-name="Layer 1">
    <g class="cls-1">
      <g>
        <path class="cls-2" d="m3.7.75c-1.01,0-1.84.83-1.84,1.84s.78,1.81,1.77,1.84c.02,0,.1,0,.16,0,.98-.05,1.75-.85,1.76-1.84,0-1.01-.83-1.84-1.85-1.84Zm.08,4.43h-.04s-.06,0-.09,0c-1.45-.05-2.54-1.18-2.54-2.59S2.27,0,3.7,0s2.6,1.16,2.6,2.59c0,1.41-1.1,2.55-2.5,2.59h-.01Z"/>
        <path class="cls-2" d="m1.49,6.97c-.48.32-.74.73-.74,1.16s.26.84.74,1.15c1.24.83,3.35.83,4.59,0,.48-.32.74-.73.74-1.16s-.27-.84-.74-1.15c-1.24-.83-3.35-.83-4.59,0Zm2.3,3.68c-.98,0-1.97-.25-2.71-.75-.69-.46-1.07-1.09-1.07-1.78s.38-1.32,1.07-1.78c1.5-1,3.93-1,5.42,0,.69.46,1.08,1.09,1.08,1.77s-.38,1.32-1.08,1.79c-.75.5-1.73.75-2.71.75Z"/>
      </g>
    </g>
  </g>
</svg>