<?xml version="1.0" encoding="UTF-8"?>
<svg id="Layer_2" data-name="Layer 2" xmlns="http://www.w3.org/2000/svg" viewBox="0 0 9.36 9.36">
  <defs>
    <style>
      .cls-1 {
        fill: #393b5d;
        fill-rule: evenodd;
        opacity: .5;
        stroke-width: 0px;
      }
    </style>
  </defs>
  <g id="Layer_1-2" data-name="Layer 1">
    <path class="cls-1" d="m6.57.72h-1.65v3.14l.67-.33c.1-.05.22-.05.32,0l.66.33V.72Zm-3.62,7.92V.72h1.25v3.72c0,.12.06.24.17.31.11.07.24.07.35.02l1.03-.51,1.02.51c.11.06.24.05.35-.02.11-.07.17-.18.17-.31V.79c.34.09.62.26.83.49.32.35.52.86.52,1.49v3.81c0,.63-.2,1.14-.52,1.49-.32.35-.8.56-1.42.56h-3.76ZM2.22.76c-.41.08-.74.26-.98.52-.33.35-.52.86-.52,1.49v3.81c0,.63.2,1.14.52,1.49.24.26.57.45.98.52V.76ZM2.6,0s.04,0,.05,0h4.05c.8,0,1.47.28,1.94.79.47.5.71,1.2.71,1.98v3.81c0,.78-.24,1.48-.71,1.98-.47.51-1.15.79-1.94.79H2.66s-.04,0-.05,0c0,0-.01,0-.02,0-.01,0-.02,0-.04,0-.75-.02-1.38-.3-1.84-.79-.47-.5-.71-1.2-.71-1.98v-3.81c0-.78.25-1.48.72-1.98C1.17.31,1.8.03,2.55,0c.01,0,.02,0,.04,0,0,0,.01,0,.02,0Z"/>
  </g>
</svg>