<?xml version="1.0" encoding="UTF-8"?>
<svg id="Layer_2" data-name="Layer 2" xmlns="http://www.w3.org/2000/svg" viewBox="0 0 10.75 10.25">
  <defs>
    <style>
      .cls-1 {
        opacity: .5;
      }

      .cls-2 {
        fill: #393b5d;
        stroke-width: 0px;
      }
    </style>
  </defs>
  <g id="Layer_1-2" data-name="Layer 1">
    <g class="cls-1">
      <g>
        <path class="cls-2" d="m5.94.75c-.84,0-1.37.34-1.72,1.08-.13.27-.25.61-.35,1.03l-.49,2.09c-.44,1.89.07,2.72,1.96,3.17l.84.2c.27.07.52.11.75.12,1.36.14,2.04-.46,2.42-2.09l.49-2.09c.22-.96.19-1.64-.1-2.12-.3-.48-.89-.82-1.86-1.04l-.83-.2c-.42-.1-.78-.15-1.1-.15Zm1.34,8.46c-.13,0-.26,0-.41-.02-.26-.02-.56-.07-.86-.14l-.84-.2c-2.31-.54-3.06-1.77-2.52-4.07l.49-2.09c.11-.48.24-.86.4-1.18C4.41-.27,6.05-.11,7.22.17l.83.2c1.17.27,1.91.71,2.33,1.38.41.66.47,1.52.2,2.69l-.49,2.09c-.43,1.83-1.32,2.7-2.81,2.7Z"/>
        <path class="cls-2" d="m3.27,2.23l-.64.21C.84,3.02.42,3.86.99,5.65l.64,1.97c.58,1.78,1.42,2.21,3.21,1.64l.79-.26s.06-.02.08-.03l-.53-.12c-2.31-.54-3.06-1.76-2.52-4.07l.49-2.09c.03-.16.08-.32.12-.46Zm.28,8.02c-1.28,0-2.1-.77-2.63-2.4l-.64-1.97C-.43,3.68.2,2.44,2.39,1.73l.79-.26c.26-.08.46-.14.63-.16.15-.03.28.03.37.14.08.11.1.26.04.39-.13.27-.24.6-.34,1.02l-.49,2.1c-.44,1.89.07,2.71,1.96,3.16l.84.2c.27.07.53.1.76.12.16.01.29.12.33.28.04.16-.02.32-.15.41-.33.22-.74.41-1.27.58l-.79.26c-.58.18-1.08.27-1.53.27Z"/>
        <path class="cls-2" d="m8.13,4.38s-.06,0-.1-.01l-2.42-.61c-.2-.05-.32-.26-.27-.46.05-.2.25-.32.45-.27l2.42.61c.2.05.32.26.27.46-.04.16-.19.28-.36.28Z"/>
        <path class="cls-2" d="m6.66,6.07s-.06,0-.1-.01l-1.45-.37c-.2-.05-.32-.26-.27-.46.05-.2.25-.32.45-.27l1.46.37c.2.05.32.26.27.46-.04.17-.19.28-.36.28Z"/>
      </g>
    </g>
  </g>
</svg>