<?xml version="1.0" encoding="UTF-8"?>
<svg id="Layer_2" data-name="Layer 2" xmlns="http://www.w3.org/2000/svg" viewBox="0 0 7.81 9.36">
  <defs>
    <style>
      .cls-1 {
        opacity: .5;
      }

      .cls-2, .cls-3 {
        fill: #393b5d;
        stroke-width: 0px;
      }

      .cls-3 {
        fill-rule: evenodd;
      }
    </style>
  </defs>
  <g id="Layer_1-2" data-name="Layer 1">
    <g class="cls-1">
      <g>
        <path class="cls-3" d="m5.62,3.37c.14.14.14.37,0,.51l-1.79,1.79c-.07.07-.16.11-.25.11-.1,0-.19-.04-.25-.11l-.87-.87c-.14-.14-.14-.37,0-.51.14-.14.37-.14.51,0l.61.61,1.53-1.53c.14-.14.37-.14.51,0Z"/>
        <path class="cls-2" d="m3.9.72c-1.08.25-2.12.61-3.11,1.1-.08.08-.08.24-.06,1.19,0,.47.02,1.11.02,2,0,2.36,2.6,3.42,3.16,3.62.56-.2,3.16-1.26,3.16-3.62,0-.88.01-1.52.02-1.99.02-.96.01-1.12-.07-1.2-.99-.48-2.03-.85-3.11-1.09Zm0,8.64s-.07,0-.1-.02c-.15-.05-3.77-1.18-3.77-4.34,0-.88-.01-1.52-.02-1.98C-.01,1.85-.02,1.61.29,1.3c.36-.36,3.1-1.3,3.62-1.3.55,0,3.25.93,3.62,1.3.3.31.3.55.28,1.72,0,.47-.02,1.1-.02,1.98,0,3.17-3.62,4.3-3.77,4.34-.03.01-.07.02-.1.02Z"/>
      </g>
    </g>
  </g>
</svg>