<?xml version="1.0" encoding="UTF-8"?>
<svg id="Layer_2" data-name="Layer 2" xmlns="http://www.w3.org/2000/svg" viewBox="0 0 10.59 12.48">
  <defs>
    <style>
      .cls-1 {
        fill: #fff;
        fill-rule: evenodd;
        opacity: .5;
        stroke-width: 0px;
      }
    </style>
  </defs>
  <g id="Layer_1-2" data-name="Layer 1">
    <path class="cls-1" d="m5.3,4.13c-.62,0-1.13.5-1.13,1.13s.5,1.13,1.13,1.13,1.13-.5,1.13-1.13-.5-1.13-1.13-1.13Zm-2.09,1.13c0-1.15.93-2.09,2.09-2.09s2.09.93,2.09,2.09-.93,2.09-2.09,2.09-2.09-.93-2.09-2.09Zm-3.21.04C0,2.37,2.37,0,5.3,0s5.3,2.37,5.3,5.3c0,1.89-1.1,3.68-2.24,4.96-.58.65-1.18,1.19-1.69,1.57-.26.19-.5.35-.71.46-.19.1-.43.2-.65.2s-.46-.1-.65-.2c-.21-.11-.46-.27-.71-.46-.52-.38-1.12-.92-1.69-1.57-1.14-1.28-2.24-3.07-2.24-4.96ZM5.3.96C2.9.96.96,2.9.96,5.3c0,1.54.92,3.1,2,4.32.53.6,1.09,1.09,1.55,1.43.23.17.43.3.59.38.12.06.19.08.21.09.02,0,.09-.03.21-.09.16-.08.36-.21.59-.38.46-.34,1.01-.83,1.55-1.43,1.08-1.22,2-2.78,2-4.32,0-2.4-1.94-4.34-4.34-4.34Z"/>
  </g>
</svg>