<?xml version="1.0" encoding="UTF-8"?>
<svg id="Layer_2" data-name="Layer 2" xmlns="http://www.w3.org/2000/svg" viewBox="0 0 12.48 12.48">
  <defs>
    <style>
      .cls-1 {
        fill: #fff;
        opacity: .5;
        stroke-width: 0px;
      }
    </style>
  </defs>
  <g id="Layer_1-2" data-name="Layer 1">
    <path class="cls-1" d="m1.47,1.9s-.03.03-.07.07c-.15.13-.26.29-.34.47-.08.18-.11.37-.11.57,0,.86.56,2.47,3.31,5.21,2.73,2.73,4.33,3.3,5.19,3.3h.01c.2,0,.39-.03.57-.11.18-.08.34-.19.47-.34.03-.04.07-.07.11-.1.6-.6.9-1.05.9-1.33,0-.28-.37-.63-.87-1.11-.16-.15-.34-.32-.52-.51-.46-.46-.71-.36-1.27-.14-.78.31-1.84.72-3.41-.85-1.57-1.57-1.15-2.63-.85-3.41.22-.56.32-.81-.14-1.27-.19-.19-.36-.37-.51-.53-.48-.5-.82-.86-1.1-.87s-.73.3-1.37.94h0Zm7.99,10.58c-1.52,0-3.49-1.21-5.87-3.58C1.2,6.51,0,4.52,0,3c0-.32.06-.64.18-.94.13-.3.32-.56.55-.78.01-.01.04-.05.06-.06C1.67.35,2.24,0,2.85,0c.69,0,1.17.52,1.79,1.17.15.16.31.33.5.51.31.28.52.67.59,1.09.07.42-.01.85-.23,1.21-.26.67-.49,1.26.63,2.38,1.12,1.12,1.7.9,2.38.63.37-.21.79-.29,1.21-.23.42.07.8.27,1.09.58.18.18.35.34.51.49.65.62,1.16,1.11,1.17,1.79,0,.59-.35,1.18-1.22,2.06l-.06.06c-.22.24-.49.43-.78.55-.3.13-.62.19-.94.18h-.02Z"/>
  </g>
</svg>