<?xml version="1.0" encoding="UTF-8"?>
<svg id="Layer_2" data-name="Layer 2" xmlns="http://www.w3.org/2000/svg" viewBox="0 0 13.01 11.8">
  <defs>
    <style>
      .cls-1 {
        opacity: .5;
      }

      .cls-2, .cls-3 {
        fill: #fff;
        stroke-width: 0px;
      }

      .cls-3 {
        fill-rule: evenodd;
      }
    </style>
  </defs>
  <g id="Layer_1-2" data-name="Layer 1">
    <g class="cls-1">
      <g>
        <path class="cls-3" d="m.37,2.24c.17-.21.49-.25.7-.08l4.37,3.52c.63.5,1.53.5,2.17,0l4.33-3.52c.21-.17.53-.14.7.07.17.21.14.53-.07.7l-4.34,3.53c-1,.79-2.41.79-3.41,0h0S.44,2.94.44,2.94c-.21-.17-.25-.49-.08-.7Z"/>
        <path class="cls-3" d="m8.42,5.03c.2-.19.52-.17.71.03l3.5,3.85c.19.2.17.52-.03.71-.2.19-.52.17-.71-.03l-3.5-3.85c-.19-.2-.17-.52.03-.71Zm-3.78,0c.2.19.22.5.03.71l-3.54,3.85c-.19.2-.5.22-.71.03-.2-.19-.22-.5-.03-.71l3.54-3.85c.19-.2.5-.22.71-.03Z"/>
        <path class="cls-2" d="m3.56,10.8h5.9c.32,0,.64-.05.93-.17.3-.12.57-.3.79-.52.27-.29.48-.62.63-.99.14-.37.21-.76.2-1.15V3.84c0-1.65-1.07-2.84-2.55-2.84H3.56c-1.48,0-2.55,1.2-2.55,2.84v4.12c-.01.39.06.79.2,1.15.14.37.35.7.63.99.23.23.5.4.79.52.3.12.61.18.93.17h0Zm5.9,1H3.55c-.45,0-.9-.08-1.31-.25-.42-.17-.8-.42-1.11-.74-.37-.38-.65-.82-.84-1.31C.09,9.01,0,8.49,0,7.96V3.84c-.03-.49.04-.98.21-1.44.16-.46.42-.88.75-1.24.33-.36.73-.65,1.18-.85.45-.2.93-.31,1.42-.32h5.89c.49,0,.97.12,1.42.32.45.2.85.49,1.18.85.33.36.59.78.75,1.24.16.46.23.95.21,1.44v4.12c.01.53-.08,1.05-.27,1.54-.19.49-.48.94-.84,1.31-.32.32-.7.57-1.11.74-.42.17-.86.25-1.32.25Z"/>
      </g>
    </g>
  </g>
</svg>