<?xml version="1.0" encoding="UTF-8"?>
<svg id="Layer_2" data-name="Layer 2" xmlns="http://www.w3.org/2000/svg" viewBox="0 0 7.67 10.65">
  <defs>
    <style>
      .cls-1 {
        opacity: .5;
      }

      .cls-2 {
        fill: #393b5d;
        stroke-width: 0px;
      }
    </style>
  </defs>
  <g id="Layer_1-2" data-name="Layer 1">
    <g class="cls-1">
      <g>
        <path class="cls-2" d="m5.77,10.04c-.09,0-.19-.04-.26-.11l-.76-.76c-.15-.15-.15-.39,0-.53.15-.15.38-.15.53,0l.49.49,1.26-1.26c.15-.14.39-.14.53,0,.14.14.14.39,0,.53l-1.52,1.52c-.07.08-.17.11-.26.11Z"/>
        <path class="cls-2" d="m3.79.75c-.49,0-.95.19-1.31.54-.34.35-.53.81-.53,1.3,0,1,.78,1.81,1.78,1.84.03,0,.1,0,.16,0,.99-.05,1.75-.85,1.75-1.84s-.83-1.84-1.85-1.84Zm.09,4.43h-.04s-.06,0-.09,0c-1.45-.05-2.55-1.18-2.55-2.59,0-.69.26-1.34.76-1.83s1.14-.76,1.83-.76c1.43,0,2.6,1.16,2.6,2.59s-1.1,2.54-2.49,2.59h-.01Z"/>
        <path class="cls-2" d="m3.79,10.65c-1.02,0-1.99-.26-2.72-.75-.69-.47-1.07-1.1-1.07-1.79s.38-1.32,1.07-1.78c1.5-1,3.93-1,5.42,0,.17.12.22.35.1.52-.11.17-.35.22-.52.1-1.24-.83-3.35-.83-4.59,0-.48.32-.74.73-.74,1.15s.26.84.74,1.16c.6.4,1.42.62,2.3.62.2,0,.38.17.38.38s-.17.38-.37.38Z"/>
      </g>
    </g>
  </g>
</svg>