<?xml version="1.0" encoding="UTF-8"?>
<svg id="Layer_2" data-name="Layer 2" xmlns="http://www.w3.org/2000/svg" viewBox="0 0 10.75 10.75">
  <defs>
    <style>
      .cls-1 {
        opacity: .5;
      }

      .cls-2 {
        fill: #393b5d;
        stroke-width: 0px;
      }
    </style>
  </defs>
  <g id="Layer_1-2" data-name="Layer 1">
    <g class="cls-1">
      <g>
        <path class="cls-2" d="m2.81,8.83c-.21,0-.38-.17-.38-.38v-1.03c0-.21.17-.38.38-.38s.38.17.38.38v1.03c0,.21-.17.38-.38.38Z"/>
        <path class="cls-2" d="m5.38,8.83c-.21,0-.38-.17-.38-.38v-2.07c0-.21.17-.38.38-.38s.38.17.38.38v2.07c0,.21-.17.38-.38.38Z"/>
        <path class="cls-2" d="m7.94,8.82c-.21,0-.38-.17-.38-.38v-3.11c0-.2.17-.38.38-.38s.38.17.38.38v3.11c0,.21-.17.38-.38.38Z"/>
        <path class="cls-2" d="m2.81,5.96c-.17,0-.32-.11-.36-.29-.05-.2.07-.4.28-.45,1.84-.46,3.46-1.46,4.69-2.9l.23-.27c.13-.15.37-.17.53-.04.16.13.18.37.04.53l-.23.27c-1.33,1.56-3.1,2.64-5.09,3.14-.03,0-.06,0-.09,0Z"/>
        <path class="cls-2" d="m7.94,4.13c-.21,0-.38-.17-.38-.38v-1.09h-1.09c-.21,0-.38-.17-.38-.38s.17-.38.38-.38h1.47c.2,0,.38.17.38.38v1.47c0,.2-.17.37-.38.37Z"/>
        <path class="cls-2" d="m3.88.75C1.57.75.75,1.57.75,3.88v3c0,2.31.82,3.12,3.12,3.12h3c2.31,0,3.12-.82,3.12-3.12v-3c0-2.3-.82-3.12-3.12-3.12h-3Zm3,10h-3c-2.72,0-3.88-1.16-3.88-3.88v-3C0,1.16,1.16,0,3.88,0h3c2.72,0,3.88,1.16,3.88,3.88v3c0,2.72-1.16,3.88-3.88,3.88Z"/>
      </g>
    </g>
  </g>
</svg>