<?xml version="1.0" encoding="UTF-8"?>
<svg id="Layer_2" data-name="Layer 2" xmlns="http://www.w3.org/2000/svg" viewBox="0 0 12.48 11.2">
  <defs>
    <style>
      .cls-1 {
        fill: #393b5d;
        fill-rule: evenodd;
        opacity: .5;
        stroke-width: 0px;
      }
    </style>
  </defs>
  <g id="Layer_1-2" data-name="Layer 1">
    <path class="cls-1" d="m2.22,6.02v2.89c0,.73.44,1.42,1.13,1.71,1.89.78,3.79.79,5.67,0,.69-.29,1.12-.97,1.12-1.7v-2.84l1.36-.66s0,0,0,0v1.9c-.01.27.2.48.47.48.27,0,.48-.21.48-.48l.02-3.46s0-.07,0-.1c-.03-.59-.36-1.16-.97-1.46L7.31.25s0,0,0,0c-.68-.33-1.48-.33-2.16,0L.97,2.29c-1.29.63-1.29,2.48,0,3.11,0,0,0,0,0,0l1.25.61Zm3.08,1.5l.05.03s.09.04.14.04c.6.19,1.25.14,1.83-.14l1.87-.91v2.37c0,.36-.21.68-.53.82-1.64.69-3.28.68-4.94,0-.32-.13-.53-.46-.53-.82v-2.41l1.97.96s.1.05.15.07Zm1.6-6.41c-.42-.2-.9-.2-1.32,0L1.39,3.16s0,0,0,0c-.58.28-.58,1.11,0,1.39l4.29,2.1c.39.15.83.14,1.21-.05l4.19-2.05c.58-.28.58-1.11,0-1.39L6.89,1.11Z"/>
  </g>
</svg>