<?xml version="1.0" encoding="UTF-8"?>
<svg id="Layer_2" data-name="Layer 2" xmlns="http://www.w3.org/2000/svg" viewBox="0 0 10.74 10.08">
  <defs>
    <style>
      .cls-1 {
        opacity: .5;
      }

      .cls-2 {
        fill: #393b5d;
        stroke-width: 0px;
      }
    </style>
  </defs>
  <g id="Layer_1-2" data-name="Layer 1">
    <g class="cls-1">
      <g>
        <path class="cls-2" d="m1.36.75c-.16,0-.3.05-.42.16-.12.11-.2.28-.2.46v6.04c0,.29.26.58.54.62l.15.02c1.12.15,2.85.71,3.85,1.26.04.02.11.02.13.02,1-.55,2.74-1.12,3.87-1.27l.17-.02c.28-.04.54-.33.54-.62V1.38c0-.18-.07-.35-.2-.46-.12-.12-.3-.17-.48-.16h-.07v2.29c0,.14-.08.26-.2.33s-.27.06-.38-.02l-.79-.52-.79.52c-.11.07-.26.08-.39.02-.12-.07-.2-.19-.2-.33v-1.46c-.22.1-.41.21-.58.31l-.08.05c-.27.17-.66.17-.93,0l-.12-.07c-.85-.53-2.39-1.04-3.37-1.12h-.07Zm4.01,9.34c-.15,0-.3-.04-.42-.11-.93-.51-2.58-1.05-3.61-1.18l-.14-.02c-.65-.08-1.2-.7-1.2-1.36V1.37C0,.98.15.62.44.36.72.1,1.09-.03,1.48,0c1.1.09,2.76.64,3.7,1.23l.12.07s.11.02.14,0l.08-.05c.33-.21.75-.42,1.21-.6.12-.05.25-.03.35.04.11.07.17.18.17.31v1.34l.42-.27c.12-.09.29-.09.41,0l.42.27V.43c0-.18.13-.34.3-.37.15-.02.29-.05.42-.05h.06c.36-.03.74.1,1.02.36.28.26.44.62.44,1.01v6.04c0,.67-.54,1.28-1.2,1.36l-.17.02c-1.03.13-2.68.68-3.6,1.18-.11.07-.26.11-.41.11Z"/>
        <path class="cls-2" d="m5.37,9.66c-.21,0-.38-.17-.38-.38V1.79c0-.2.17-.38.38-.38s.38.17.38.38v7.5c0,.21-.17.38-.38.38Z"/>
        <path class="cls-2" d="m7.87,2c.07,0,.14.02.21.07l.42.27V.89c-.4.09-.84.22-1.25.38v1.08l.42-.27c.06-.04.14-.07.21-.07Zm1,1.42c-.08,0-.14-.02-.21-.07l-.79-.52-.79.52c-.11.08-.26.08-.38.02-.12-.07-.2-.19-.2-.33V1c0-.15.09-.29.23-.35.69-.27,1.45-.49,2.08-.59.11-.02.22.02.3.09.08.07.13.18.13.29v2.61c0,.14-.08.26-.2.33-.06.03-.11.05-.17.05Z"/>
      </g>
    </g>
  </g>
</svg>